<?xml version="1.0" encoding="UTF-8" standalone="no"?>
<!-- Generator: Adobe Illustrator 16.0.0, SVG Export Plug-In . SVG Version: 6.00 Build 0)  -->

<svg
   xmlns:dc="http://purl.org/dc/elements/1.1/"
   xmlns:cc="http://creativecommons.org/ns#"
   xmlns:rdf="http://www.w3.org/1999/02/22-rdf-syntax-ns#"
   xmlns:svg="http://www.w3.org/2000/svg"
   xmlns="http://www.w3.org/2000/svg"
   xmlns:sodipodi="http://sodipodi.sourceforge.net/DTD/sodipodi-0.dtd"
   xmlns:inkscape="http://www.inkscape.org/namespaces/inkscape"
   version="1.1"
   id="Layer_1"
   x="0px"
   y="0px"
   width="32px"
   height="32px"
   viewBox="0 0 32 32"
   enable-background="new 0 0 32 32"
   xml:space="preserve"
   inkscape:version="0.48.5 r10040"
   sodipodi:docname="mxflow-logo2.svg"
   inkscape:export-filename="/Users/jeff/Desktop/mxflow-logo2-sm.png"
   inkscape:export-xdpi="45"
   inkscape:export-ydpi="45"><metadata
     id="metadata4482"><rdf:RDF><cc:Work
         rdf:about=""><dc:format>image/svg+xml</dc:format><dc:type
           rdf:resource="http://purl.org/dc/dcmitype/StillImage" /><dc:title></dc:title></cc:Work></rdf:RDF></metadata><defs
     id="defs4480" /><sodipodi:namedview
     pagecolor="#ffffff"
     bordercolor="#666666"
     borderopacity="1"
     objecttolerance="10"
     gridtolerance="10"
     guidetolerance="5"
     inkscape:pageopacity="0"
     inkscape:pageshadow="2"
     inkscape:window-width="1276"
     inkscape:window-height="755"
     id="namedview4478"
     showgrid="true"
     showguides="true"
     inkscape:guide-bbox="true"
     inkscape:zoom="19.484842"
     inkscape:cx="16.004118"
     inkscape:cy="18.831872"
     inkscape:window-x="4"
     inkscape:window-y="0"
     inkscape:window-maximized="1"
     inkscape:current-layer="Layer_1"><sodipodi:guide
       orientation="0,1"
       position="-10.837706,27.011745"
       id="guide5000" /><sodipodi:guide
       orientation="0,1"
       position="-7.976992,5.9964974"
       id="guide5004" /><inkscape:grid
       type="xygrid"
       id="grid5018"
       empspacing="5"
       visible="true"
       enabled="true"
       snapvisiblegridlinesonly="true" /></sodipodi:namedview><path
     style="fill:#000000;fill-opacity:1"
     d="M 18,0 18,5 4,5 C 1.7910169,4.9913535 0,6.792 0,9 l 0,13 c 0,2.209 1.791,4 4,4 L 7,26 6,25 7,24 4,24 C 2.897,24 2,23.104 2,22 l 7.84375,-5.875 4.34375,3.28125 C 14.7205,19.80425 15.366,20 16,20 c 0.633,0 1.2795,-0.19475 1.8125,-0.59375 L 22.15625,16.125 30,22 c 0,1.104 -0.898,2 -2,2 l -14,0 0,-5 c -1.088336,1.125974 -4.701231,4.721968 -6,6 1.184449,1.164489 4.68844,4.642668 6,6 l 0,-5 14,0 c 2.209,0 4,-1.791 4,-4 L 32,9 C 32,6.792 30.209,5 28,5 l -3,0 1,1 -1,1 3,0 c 1.102,0 2,0.897 2,2 L 17.1875,18.59375 C 16.8385,18.85575 16.436,19 16,19 15.564,19 15.1615,18.85475 14.8125,18.59375 10.497354,15.385012 5.8021855,11.846826 2,9 2,7.897 2.897,7 4,7 l 14,0 0,5 C 19.31156,10.642668 22.815551,7.164489 24,6 22.701231,4.721968 19.088336,1.125974 18,0 z M 2,10.25 9,15.5 2,20.75 z m 28,0 0,10.5 -7,-5.25 z"
     id="mail"
     inkscape:connector-curvature="0"
     sodipodi:nodetypes="cccssscccscccscccscccccsssscccsccsccccccccccccccc"
     inkscape:export-filename="/Users/jeff/Desktop/mxflow-logo2-sm.png"
     inkscape:export-xdpi="45"
     inkscape:export-ydpi="45" /><rect
     style="fill:#000000;fill-opacity:1;stroke:#000000;stroke-width:0.625;stroke-miterlimit:4;stroke-opacity:1;stroke-dasharray:none"
     id="rect5028"
     width="0"
     height="0"
     x="0"
     y="0" /></svg>